<svg width="60" height="60" viewBox="0 0 60 60" fill="none" xmlns="http://www.w3.org/2000/svg">
<g clip-path="url(#clip0_303_145)">
<g filter="url(#filter0_d_303_145)">
<path d="M30 42.5C36.9036 42.5 42.5 36.9036 42.5 30C42.5 23.0964 36.9036 17.5 30 17.5C23.0964 17.5 17.5 23.0964 17.5 30C17.5 36.9036 23.0964 42.5 30 42.5Z" fill="white"/>
<path d="M45 52.5H15C14.337 52.5 13.7011 52.2366 13.2322 51.7678C12.7634 51.2989 12.5 50.663 12.5 50C12.5 49.337 12.7634 48.7011 13.2322 48.2322C13.7011 47.7634 14.337 47.5 15 47.5H45C45.663 47.5 46.2989 47.7634 46.7678 48.2322C47.2366 48.7011 47.5 49.337 47.5 50C47.5 50.663 47.2366 51.2989 46.7678 51.7678C46.2989 52.2366 45.663 52.5 45 52.5ZM52.5 42.5H7.5C6.83696 42.5 6.20107 42.2366 5.73223 41.7678C5.26339 41.2989 5 40.663 5 40C5 39.337 5.26339 38.7011 5.73223 38.2322C6.20107 37.7634 6.83696 37.5 7.5 37.5H52.5C53.163 37.5 53.7989 37.7634 54.2678 38.2322C54.7366 38.7011 55 39.337 55 40C55 40.663 54.7366 41.2989 54.2678 41.7678C53.7989 42.2366 53.163 42.5 52.5 42.5ZM52.5 32.5H50C49.337 32.5 48.7011 32.2366 48.2322 31.7678C47.7634 31.2989 47.5 30.663 47.5 30C47.5 29.337 47.7634 28.7011 48.2322 28.2322C48.7011 27.7634 49.337 27.5 50 27.5H52.5C53.163 27.5 53.7989 27.7634 54.2678 28.2322C54.7366 28.7011 55 29.337 55 30C55 30.663 54.7366 31.2989 54.2678 31.7678C53.7989 32.2366 53.163 32.5 52.5 32.5ZM10 32.5H7.5C6.83696 32.5 6.20107 32.2366 5.73223 31.7678C5.26339 31.2989 5 30.663 5 30C5 29.337 5.26339 28.7011 5.73223 28.2322C6.20107 27.7634 6.83696 27.5 7.5 27.5H10C10.663 27.5 11.2989 27.7634 11.7678 28.2322C12.2366 28.7011 12.5 29.337 12.5 30C12.5 30.663 12.2366 31.2989 11.7678 31.7678C11.2989 32.2366 10.663 32.5 10 32.5ZM44.15 18.35C43.529 18.3219 42.9407 18.0634 42.5 17.625C42.2657 17.3926 42.0797 17.1161 41.9528 16.8114C41.8259 16.5068 41.7605 16.18 41.7605 15.85C41.7605 15.52 41.8259 15.1932 41.9528 14.8886C42.0797 14.5839 42.2657 14.3074 42.5 14.075L44.25 12.325C44.7208 11.8542 45.3592 11.5898 46.025 11.5898C46.6908 11.5898 47.3292 11.8542 47.8 12.325C48.2708 12.7958 48.5352 13.4342 48.5352 14.1C48.5352 14.7658 48.2708 15.4042 47.8 15.875L46.05 17.625C45.8018 17.8722 45.5044 18.0645 45.177 18.1894C44.8497 18.3143 44.4998 18.369 44.15 18.35ZM15.85 18.35C15.521 18.3519 15.1948 18.2888 14.8902 18.1644C14.5856 18.04 14.3086 17.8567 14.075 17.625L12.325 15.875C11.8542 15.4042 11.5898 14.7658 11.5898 14.1C11.5898 13.4342 11.8542 12.7958 12.325 12.325C12.7958 11.8542 13.4342 11.5898 14.1 11.5898C14.7658 11.5898 15.4042 11.8542 15.875 12.325L17.625 14.075C17.8593 14.3074 18.0453 14.5839 18.1722 14.8886C18.2992 15.1932 18.3645 15.52 18.3645 15.85C18.3645 16.18 18.2992 16.5068 18.1722 16.8114C18.0453 17.1161 17.8593 17.3926 17.625 17.625C17.3914 17.8567 17.1144 18.04 16.8098 18.1644C16.5052 18.2888 16.179 18.3519 15.85 18.35ZM30 12.5C29.337 12.5 28.7011 12.2366 28.2322 11.7678C27.7634 11.2989 27.5 10.663 27.5 10V7.5C27.5 6.83696 27.7634 6.20107 28.2322 5.73223C28.7011 5.26339 29.337 5 30 5C30.663 5 31.2989 5.26339 31.7678 5.73223C32.2366 6.20107 32.5 6.83696 32.5 7.5V10C32.5 10.663 32.2366 11.2989 31.7678 11.7678C31.2989 12.2366 30.663 12.5 30 12.5Z" fill="white"/>
</g>
</g>
<defs>
<filter id="filter0_d_303_145" x="1" y="1" width="60" height="57.5" filterUnits="userSpaceOnUse" color-interpolation-filters="sRGB">
<feFlood flood-opacity="0" result="BackgroundImageFix"/>
<feColorMatrix in="SourceAlpha" type="matrix" values="0 0 0 0 0 0 0 0 0 0 0 0 0 0 0 0 0 0 127 0" result="hardAlpha"/>
<feOffset dx="1" dy="1"/>
<feGaussianBlur stdDeviation="2.5"/>
<feComposite in2="hardAlpha" operator="out"/>
<feColorMatrix type="matrix" values="0 0 0 0 1 0 0 0 0 1 0 0 0 0 1 0 0 0 0.2 0"/>
<feBlend mode="normal" in2="BackgroundImageFix" result="effect1_dropShadow_303_145"/>
<feBlend mode="normal" in="SourceGraphic" in2="effect1_dropShadow_303_145" result="shape"/>
</filter>
<clipPath id="clip0_303_145">
<rect width="60" height="60" fill="white"/>
</clipPath>
</defs>
</svg>
