<svg width="18" height="18" viewBox="0 0 18 18" fill="none" xmlns="http://www.w3.org/2000/svg">
<path d="M8.99555 16.3105C8.47165 15.8457 7.87952 15.3622 7.25327 14.8478H7.24515C5.0399 13.0439 2.54061 11.0027 1.43677 8.55677C1.07411 7.77809 0.881922 6.93088 0.873056 6.07187C0.870634 4.8932 1.34317 3.7633 2.18388 2.93753C3.02459 2.11176 4.16249 1.65984 5.34043 1.6839C6.29939 1.68541 7.23771 1.96268 8.04359 2.48267C8.39771 2.71261 8.7181 2.99075 8.99555 3.30907C9.27454 2.992 9.59502 2.71402 9.94831 2.48267C10.7538 1.96258 11.6919 1.68529 12.6507 1.6839C13.8286 1.65984 14.9665 2.11176 15.8072 2.93753C16.6479 3.7633 17.1205 4.8932 17.118 6.07187C17.1097 6.93225 16.9175 7.7809 16.5543 8.56083C15.4505 11.0067 12.952 13.0471 10.7468 14.8478L10.7386 14.8543C10.1116 15.3654 9.52026 15.8489 8.99636 16.317L8.99555 16.3105ZM5.34043 3.30907C4.58383 3.2996 3.85407 3.58929 3.30981 4.11516C2.78541 4.63048 2.49233 5.33652 2.49749 6.07187C2.50676 6.69797 2.6485 7.31501 2.91343 7.88232C3.4345 8.93763 4.13758 9.89271 4.99035 10.7036C5.79529 11.5162 6.72125 12.3028 7.52213 12.9642C7.74387 13.1471 7.96968 13.3315 8.19548 13.516L8.33763 13.6322C8.5545 13.8093 8.77868 13.993 8.99555 14.1734L9.00611 14.1636L9.01098 14.1596H9.01585L9.02316 14.1539H9.02722H9.03128L9.04591 14.1417L9.07921 14.1149L9.08489 14.11L9.09383 14.1035H9.0987L9.10601 14.097L9.64534 13.6541L9.78668 13.5379C10.0149 13.3519 10.2407 13.1674 10.4625 12.9846C11.2633 12.3231 12.1901 11.5373 12.9951 10.7207C13.8479 9.91018 14.551 8.95535 15.072 7.9002C15.3417 7.32797 15.4855 6.70448 15.4936 6.07187C15.4969 5.33879 15.204 4.63545 14.6813 4.12166C14.1381 3.59341 13.4082 3.30134 12.6507 3.30907C11.7263 3.30121 10.8425 3.68885 10.222 4.37438L8.99555 5.78828L7.76905 4.37438C7.14855 3.68885 6.26483 3.30121 5.34043 3.30907Z" fill="#0077B6"/>
<path d="M7.89211 3.80775L8.9998 4.91544L9.55365 4.3616H10.1075V3.80775C10.1075 4.3616 10.6613 3.69698 10.6613 3.25391H11.2152H12.3229H13.4306L15.0921 3.80775L15.646 4.3616V4.91544L16.1998 6.57698L15.646 7.68467L15.0921 8.79237L14.5383 9.90006L12.3229 12.1501L11.769 13.2231L10.1075 14.3308L9.55365 14.8847H8.9998H8.44596L4.01519 11.0078L3.46134 10.4539L2.9075 9.90006V9.34621L2.35365 8.79237L1.7998 8.23852V7.68467V7.13083V6.57698V5.46929V4.91544L2.35365 4.3616V3.80775L3.46134 3.25391L4.01519 3.2539L5.8498 3.25391L6.7498 3.80775H7.89211Z" fill="#0077B6"/>
<path d="M13.4306 3.25391L15.0921 3.80775L15.646 4.3616V4.91544L16.1998 6.57698L15.646 7.68467L15.0921 8.79237L14.5383 9.90006L12.3229 12.1501L11.769 13.2231L10.1075 14.3308L9.55365 14.8847H8.9998H8.44596L4.01519 11.0078L3.46134 10.4539L2.9075 9.90006V9.34621L2.35365 8.79237L1.7998 8.23852V7.68467V7.13083V6.57698V5.46929V4.91544L2.35365 4.3616V3.80775L3.46134 3.25391L4.01519 3.2539L5.8498 3.25391L6.7498 3.80775H7.89211L8.9998 4.91544L9.55365 4.3616H10.1075V3.80775C10.1075 4.3616 10.6613 3.69698 10.6613 3.25391H11.2152C11.3998 3.25391 11.8798 3.25391 12.3229 3.25391H13.4306ZM13.4306 3.25391H13.9844" stroke="#0077B6"/>
</svg>
