<svg width="50" height="50" viewBox="0 0 50 50" fill="none" xmlns="http://www.w3.org/2000/svg">
<g id="confetti-svgrepo-com 1">
<path id="Vector" fill-rule="evenodd" clip-rule="evenodd" d="M32.5045 5.04616C32.0466 4.58831 31.4705 4.60844 31.1547 4.65035C30.8559 4.68998 30.4982 4.79179 30.1574 4.88877L29.8949 4.96337L29.6815 4.82873C29.3928 4.64637 29.0826 4.45048 28.8068 4.33056C28.4955 4.19531 27.9703 4.04144 27.4184 4.33148C26.8772 4.61598 26.6988 5.12529 26.6253 5.44939C26.5582 5.74429 26.5295 6.11306 26.5024 6.46377L26.4815 6.72941L26.4799 6.75156L26.2474 6.94289C25.9697 7.17137 25.6815 7.4085 25.4772 7.63194C25.2605 7.86864 24.9268 8.31339 25.0115 8.93264C25.0993 9.57304 25.563 9.9051 25.8528 10.0658C26.1153 10.2113 26.4605 10.3388 26.7826 10.4575L27.0093 10.5413L27.093 10.7681C27.2118 11.09 27.3393 11.4354 27.4849 11.6978C27.6455 11.9876 27.9776 12.4514 28.618 12.539C29.2372 12.6238 29.682 12.29 29.9186 12.0735C30.1422 11.8691 30.3793 11.5809 30.6078 11.3032L30.799 11.0708L30.8211 11.069L31.0868 11.0483C31.4376 11.0211 31.8063 10.9924 32.1011 10.9254C32.4253 10.8517 32.9347 10.6735 33.219 10.1322C33.5093 9.58035 33.3553 9.0551 33.2201 8.74394C33.1001 8.46806 32.9043 8.15791 32.722 7.86923L32.5872 7.65579L32.6618 7.39327C32.7588 7.05244 32.8607 6.69464 32.9003 6.39602C32.9422 6.08002 32.9624 5.504 32.5045 5.04616Z" fill="#1C274C"/>
<path id="Vector_2" d="M21.2225 4.50181C21.9587 4.95191 22.1908 5.91366 21.7406 6.64991C21.4139 7.18418 21.4958 7.87266 21.9387 8.31545L22.1425 8.51937C23.3689 9.74572 23.8212 11.5473 23.3193 13.2075C23.0695 14.0335 22.1977 14.5007 21.3716 14.2511C20.5455 14.0014 20.0783 13.1293 20.328 12.3033C20.4965 11.7458 20.3446 11.1409 19.9328 10.7291L19.7289 10.5252C18.2653 9.06156 17.9947 6.78593 19.0744 5.01995C19.5245 4.2837 20.4862 4.05172 21.2225 4.50181Z" fill="#1C274C"/>
<path id="Vector_3" d="M44.6021 28.2942C43.8485 27.9648 42.9723 28.1031 42.3568 28.6488C40.6708 30.1438 38.2175 30.3923 36.266 29.2656L35.8227 29.0096C35.0752 28.5781 34.8191 27.6225 35.2506 26.8752C35.6821 26.1279 36.6377 25.8719 37.3852 26.3033L37.8285 26.5592C38.615 27.0133 39.6039 26.9133 40.2835 26.3106C41.8102 24.9569 43.9843 24.6135 45.8541 25.4308L46.4612 25.6965C47.2521 26.0421 47.6127 26.9633 47.2671 27.754C46.9212 28.5448 46 28.9054 45.2093 28.5598L44.6021 28.2942Z" fill="#1C274C"/>
<path id="Vector_4" d="M26.9091 14.9559C26.4726 14.5195 25.7651 14.5195 25.3287 14.9559C24.8924 15.3923 24.8924 16.0999 25.3287 16.5363C25.7651 16.9727 26.4726 16.9727 26.9091 16.5363C27.3453 16.0999 27.3453 15.3923 26.9091 14.9559Z" fill="#1C274C"/>
<path id="Vector_5" fill-rule="evenodd" clip-rule="evenodd" d="M46.9254 18.467C47.4586 19.6209 47.0988 20.931 46.1256 21.9042C45.5613 22.4685 44.805 22.7242 44.1315 22.844C43.4425 22.9665 42.7144 22.969 42.0763 22.9281C41.4321 22.8869 40.8413 22.7987 40.4142 22.7221C40.1994 22.6833 40.0233 22.6473 39.8992 22.6202C39.8371 22.6067 39.7879 22.5954 39.7531 22.5873L39.7119 22.5775L39.6998 22.5746L39.6961 22.5737L39.6938 22.5731C39.3185 22.4802 39.0256 22.1875 38.9327 21.8123L39.944 21.5621C38.9327 21.8123 38.9323 21.81 38.9323 21.81L38.9313 21.806L38.9283 21.794L38.9186 21.7529C38.9104 21.7181 38.8992 21.6687 38.8858 21.6067C38.8588 21.4825 38.8225 21.3065 38.784 21.0919C38.7073 20.6647 38.6192 20.0739 38.5779 19.4296C38.5371 18.7916 38.5394 18.0633 38.6621 17.3744C38.7817 16.7009 39.0373 15.9446 39.6017 15.3803C40.575 14.4071 41.885 14.0474 43.039 14.5804C43.9144 14.9848 44.4838 15.803 44.6981 16.8078C45.7029 17.0222 46.5213 17.5916 46.9254 18.467Z" fill="#1C274C"/>
<g id="Group" opacity="0.5">
<path id="Vector_6" d="M36.8543 9.88242C37.7005 10.0517 38.2493 10.8748 38.0801 11.721L37.7801 13.2209C37.3672 15.2851 35.8801 16.9698 33.883 17.6355C32.9499 17.9465 32.2549 18.7338 32.062 19.6983L31.762 21.1981C31.5928 22.0444 30.7695 22.5931 29.9234 22.4239C29.0772 22.2546 28.5284 21.4314 28.6976 20.5853L28.9976 19.0855C29.4105 17.0213 30.8976 15.3365 32.8947 14.6708C33.828 14.3598 34.5228 13.5726 34.7157 12.608L35.0157 11.1082C35.1849 10.262 36.0082 9.71317 36.8543 9.88242Z" fill="#1C274C"/>
<path id="Vector_7" d="M14.4347 8.25576C14.8711 7.81937 15.5786 7.81937 16.015 8.25576C16.4514 8.69214 16.4514 9.39968 16.015 9.83608C15.5786 10.2725 14.8711 10.2725 14.4347 9.83608C13.9983 9.39968 13.9983 8.69214 14.4347 8.25576Z" fill="#1C274C"/>
</g>
<path id="Vector_8" opacity="0.7" d="M41.2855 31.9485C40.8492 31.5123 40.1415 31.5123 39.7053 31.9485C39.2688 32.385 39.2688 33.0925 39.7053 33.529C40.1415 33.9652 40.8492 33.9652 41.2855 33.529C41.7219 33.0925 41.7219 32.385 41.2855 31.9485Z" fill="#1C274C"/>
<path id="Vector_9" opacity="0.2" d="M35.7458 21.2065C36.1821 20.77 36.8898 20.77 37.326 21.2065C37.7625 21.6427 37.7625 22.3504 37.326 22.7867C36.8898 23.2231 36.1821 23.2231 35.7458 22.7867C35.3093 22.3504 35.3093 21.6427 35.7458 21.2065Z" fill="#1C274C"/>
<path id="Vector_10" opacity="0.5" d="M8.35856 32.8371L11.8783 22.2777C13.4742 17.4901 14.2721 15.0963 16.1602 14.6506C18.0482 14.2049 19.8324 15.9891 23.4009 19.5576L30.4405 26.5971C34.0088 30.1656 35.7932 31.9498 35.3474 33.8379C34.9018 35.7258 32.508 36.5238 27.7203 38.1198L17.161 41.6396C11.3997 43.56 8.51908 44.5202 6.9985 42.9996C5.47792 41.479 6.43813 38.5983 8.35856 32.8371Z" fill="#1C274C"/>
<path id="Vector_11" d="M18.3337 15.6338L18.4392 15.1234C17.6202 14.6429 16.8981 14.4764 16.1601 14.6506C15.8592 14.7216 15.586 14.8422 15.3328 15.014L16.7837 15.3137C15.7868 15.1078 15.448 15.0377 15.3328 15.014C15.3086 15.0304 15.2843 15.0475 15.2605 15.0649L15.2494 15.1195C15.2344 15.1943 15.2126 15.3037 15.1853 15.4443C15.1305 15.7255 15.0532 16.1322 14.9619 16.6388C14.7795 17.6513 14.5405 19.0663 14.3143 20.6786C13.8661 23.8727 13.451 27.954 13.6648 31.2154C13.7942 33.1888 14.2048 35.6369 14.5712 37.5496C14.7561 38.515 14.9332 39.361 15.064 39.9663C15.1295 40.269 15.1836 40.5119 15.2214 40.68L15.2654 40.874L15.2772 40.9252L15.2813 40.9427C15.2813 40.9429 15.2817 40.9444 16.8035 40.5902L15.2813 40.9427L15.5666 42.1692C16.072 42.0025 16.6029 41.8254 17.1609 41.6396L18.5446 41.1783L18.3221 40.2221L18.3115 40.176L18.27 39.9933C18.2339 39.8331 18.1818 39.599 18.1184 39.3056C17.9915 38.7188 17.8197 37.8977 17.6404 36.9617C17.2784 35.0721 16.8992 32.7815 16.7831 31.0108C16.5913 28.0863 16.966 24.2698 17.409 21.1129C17.6283 19.5495 17.8603 18.1756 18.0374 17.193C18.1259 16.7021 18.2005 16.3097 18.2527 16.0413C18.2788 15.9071 18.2993 15.8039 18.3132 15.7349L18.3288 15.6576L18.3327 15.6389L18.3337 15.6338Z" fill="#1C274C"/>
<path id="Vector_12" d="M27.1651 38.3048L24.2003 39.2929L24.0078 38.7137L25.4907 38.221C24.0078 38.7137 24.008 38.714 24.0078 38.7137L24.0059 38.7079L24.0018 38.6954L23.987 38.65C23.9743 38.611 23.9561 38.555 23.9334 38.4833C23.888 38.3398 23.8236 38.1337 23.747 37.8773C23.5936 37.3654 23.3895 36.6494 23.1849 35.8302C22.7847 34.2277 22.3486 32.0979 22.3486 30.3233C22.3486 28.5487 22.7847 26.419 23.1849 24.8165C23.3895 23.9973 23.5936 23.2812 23.747 22.7694C23.8236 22.5129 23.888 22.3069 23.9334 22.1633C23.9561 22.0917 23.9743 22.0356 23.987 21.9967L24.0018 21.9512L24.0059 21.9385L24.0072 21.9348C24.0072 21.9348 24.0078 21.9329 25.4907 22.4256L24.0072 21.9348L24.4488 20.6059L26.9216 23.0785C26.9186 23.0883 26.9153 23.0983 26.912 23.1087C26.8711 23.2375 26.812 23.4271 26.7407 23.6654C26.5978 24.1429 26.4072 24.8115 26.2168 25.5735C25.8272 27.1335 25.4736 28.9527 25.4736 30.3233C25.4736 31.694 25.8272 33.5131 26.2168 35.0731C26.4072 35.8352 26.5978 36.5037 26.7407 36.9812C26.812 37.2196 26.8711 37.4092 26.912 37.5379C26.9324 37.6023 26.9482 37.6515 26.9588 37.6835L26.9703 37.7192L26.973 37.7271L27.1651 38.3048Z" fill="#1C274C"/>
</g>
</svg>
