<svg width="18" height="18" viewBox="0 0 18 18" fill="none" xmlns="http://www.w3.org/2000/svg">
<path d="M8.99759 16.308C8.47356 15.8433 7.88128 15.3599 7.25488 14.8456H7.24676C5.04095 13.042 2.54103 11.0011 1.43691 8.55562C1.07416 7.77707 0.881924 6.93001 0.873056 6.07114C0.870634 4.89267 1.34329 3.76295 2.18421 2.93732C3.02513 2.11169 4.16332 1.65984 5.34156 1.6839C6.30076 1.68541 7.23931 1.96263 8.0454 2.48254C8.3996 2.71244 8.72008 2.99053 8.99759 3.3088C9.27666 2.99178 9.59722 2.71385 9.9506 2.48254C10.7563 1.96253 11.6947 1.68529 12.6536 1.6839C13.8319 1.65984 14.9701 2.11169 15.811 2.93732C16.6519 3.76295 17.1245 4.89267 17.1221 6.07114C17.1138 6.93138 16.9216 7.77989 16.5583 8.55968C15.4542 11.0052 12.955 13.0452 10.7492 14.8456L10.7411 14.8521C10.1139 15.3632 9.52244 15.8466 8.99841 16.3145L8.99759 16.308ZM5.34156 3.3088C4.58476 3.29933 3.85483 3.58897 3.31042 4.11476C2.78589 4.62998 2.49273 5.33591 2.4979 6.07114C2.50717 6.69714 2.64895 7.31407 2.91395 7.88129C3.43514 8.93642 4.1384 9.89134 4.99139 10.7021C5.79653 11.5146 6.72272 12.301 7.5238 12.9624C7.7456 13.1452 7.97146 13.3296 8.19733 13.514L8.33951 13.6302C8.55643 13.8073 8.78067 13.9909 8.99759 14.1713L9.00815 14.1615L9.01303 14.1575H9.0179L9.02522 14.1518H9.02928H9.03334L9.04796 14.1396L9.08127 14.1128L9.08696 14.1079L9.0959 14.1014H9.10077L9.10809 14.0949L9.64755 13.6521L9.78892 13.536C10.0172 13.3499 10.2431 13.1655 10.4649 12.9827C11.266 12.3213 12.193 11.5357 12.9981 10.7192C13.8512 9.90881 14.5545 8.95414 15.0756 7.89916C15.3453 7.32703 15.4891 6.70364 15.4972 6.07114C15.5006 5.33818 15.2076 4.63496 14.6848 4.12125C14.1414 3.5931 13.4113 3.30107 12.6536 3.3088C11.729 3.30094 10.8451 3.68852 10.2244 4.37393L8.99759 5.7876L7.77079 4.37393C7.15013 3.68852 6.26619 3.30094 5.34156 3.3088Z" fill="#A1A4B2"/>
</svg>
