<svg width="50" height="50" viewBox="0 0 50 50" fill="none" xmlns="http://www.w3.org/2000/svg">
<path fill-rule="evenodd" clip-rule="evenodd" d="M32.5043 5.04616C32.0464 4.58831 31.4704 4.60844 31.1546 4.65035C30.8558 4.68998 30.4981 4.79179 30.1573 4.88877L29.8948 4.96337L29.6814 4.82873C29.3927 4.64637 29.0825 4.45048 28.8066 4.33056C28.4954 4.19531 27.9702 4.04144 27.4183 4.33148C26.8771 4.61598 26.6987 5.12529 26.6252 5.44939C26.5581 5.74429 26.5293 6.11306 26.5023 6.46377L26.4814 6.72941L26.4798 6.75156L26.2473 6.94289C25.9696 7.17137 25.6814 7.4085 25.4771 7.63194C25.2604 7.86864 24.9266 8.31339 25.0114 8.93264C25.0991 9.57304 25.5629 9.9051 25.8527 10.0658C26.1152 10.2113 26.4604 10.3388 26.7825 10.4575L27.0091 10.5413L27.0929 10.7681C27.2116 11.09 27.3391 11.4354 27.4848 11.6978C27.6454 11.9876 27.9775 12.4514 28.6179 12.539C29.2371 12.6238 29.6818 12.29 29.9185 12.0735C30.1421 11.8691 30.3791 11.5809 30.6077 11.3032L30.7989 11.0708L30.821 11.069L31.0866 11.0483C31.4375 11.0211 31.8062 10.9924 32.101 10.9254C32.4252 10.8517 32.9346 10.6735 33.2189 10.1322C33.5091 9.58035 33.3552 9.0551 33.22 8.74394C33.1 8.46806 32.9041 8.15791 32.7218 7.86923L32.5871 7.65579L32.6616 7.39327C32.7587 7.05244 32.8606 6.69464 32.9002 6.39602C32.9421 6.08002 32.9623 5.504 32.5043 5.04616Z" fill="#1C274C"/>
<path d="M21.2223 4.50181C21.9585 4.95192 22.1906 5.91367 21.7404 6.64992C21.4137 7.18419 21.4956 7.87267 21.9385 8.31546L22.1423 8.51938C23.3687 9.74573 23.821 11.5474 23.3191 13.2075C23.0694 14.0335 22.1975 14.5008 21.3714 14.2511C20.5453 14.0014 20.0781 13.1293 20.3278 12.3033C20.4963 11.7458 20.3444 11.1409 19.9326 10.7291L19.7287 10.5252C18.2651 9.06156 17.9946 6.78594 19.0742 5.01996C19.5243 4.28371 20.486 4.05173 21.2223 4.50181Z" fill="#1C274C"/>
<path d="M44.6023 28.2942C43.8488 27.9648 42.9725 28.1031 42.3571 28.6488C40.6711 30.1438 38.2177 30.3923 36.2663 29.2656L35.8229 29.0096C35.0754 28.5781 34.8194 27.6225 35.2508 26.8752C35.6823 26.1279 36.6379 25.8719 37.3854 26.3033L37.8288 26.5592C38.6152 27.0133 39.6042 26.9133 40.2838 26.3106C41.8104 24.9569 43.9846 24.6135 45.8544 25.4308L46.4615 25.6965C47.2523 26.0421 47.6129 26.9633 47.2673 27.754C46.9215 28.5448 46.0002 28.9054 45.2096 28.5598L44.6023 28.2942Z" fill="#1C274C"/>
<path d="M26.9089 14.9559C26.4725 14.5195 25.765 14.5195 25.3285 14.9559C24.8923 15.3923 24.8923 16.0999 25.3285 16.5362C25.765 16.9726 26.4725 16.9726 26.9089 16.5362C27.3452 16.0999 27.3452 15.3923 26.9089 14.9559Z" fill="#1C274C"/>
<path fill-rule="evenodd" clip-rule="evenodd" d="M46.9254 18.467C47.4586 19.6209 47.0988 20.931 46.1256 21.9042C45.5613 22.4685 44.805 22.7242 44.1315 22.844C43.4425 22.9665 42.7144 22.969 42.0763 22.9281C41.4321 22.8869 40.8413 22.7988 40.4142 22.7221C40.1994 22.6833 40.0233 22.6473 39.8992 22.6202C39.8371 22.6067 39.7879 22.5954 39.7531 22.5873L39.7119 22.5775L39.6998 22.5746L39.6961 22.5738L39.6938 22.5731C39.3185 22.4802 39.0256 22.1875 38.9327 21.8123L39.944 21.5621C38.9327 21.8123 38.9323 21.81 38.9323 21.81L38.9313 21.806L38.9283 21.794L38.9186 21.7529C38.9104 21.7181 38.8992 21.6688 38.8858 21.6067C38.8588 21.4825 38.8225 21.3065 38.784 21.0919C38.7073 20.6647 38.6192 20.0739 38.5779 19.4296C38.5371 18.7916 38.5394 18.0634 38.6621 17.3744C38.7817 16.7009 39.0373 15.9446 39.6017 15.3803C40.575 14.4071 41.885 14.0474 43.039 14.5804C43.9144 14.9848 44.4838 15.803 44.6981 16.8078C45.7029 17.0223 46.5213 17.5916 46.9254 18.467Z" fill="#1C274C"/>
<g opacity="0.5">
<path d="M36.8542 9.88244C37.7004 10.0517 38.2492 10.8748 38.08 11.721L37.78 13.2209C37.3671 15.2851 35.88 16.9698 33.8829 17.6355C32.9498 17.9466 32.2548 18.7338 32.0619 19.6983L31.7619 21.1981C31.5927 22.0444 30.7694 22.5931 29.9233 22.424C29.0771 22.2546 28.5283 21.4315 28.6975 20.5853L28.9975 19.0855C29.4104 17.0213 30.8975 15.3365 32.8946 14.6709C33.8279 14.3598 34.5227 13.5726 34.7156 12.608L35.0156 11.1082C35.1848 10.262 36.0081 9.71319 36.8542 9.88244Z" fill="#1C274C"/>
<path d="M14.4345 8.25577C14.8709 7.81938 15.5785 7.81938 16.0148 8.25577C16.4512 8.69215 16.4512 9.39969 16.0148 9.83608C15.5785 10.2725 14.8709 10.2725 14.4345 9.83608C13.9981 9.39969 13.9981 8.69215 14.4345 8.25577Z" fill="#1C274C"/>
</g>
<path opacity="0.7" d="M41.2854 31.9485C40.8492 31.5123 40.1415 31.5123 39.7052 31.9485C39.2688 32.385 39.2688 33.0925 39.7052 33.529C40.1415 33.9652 40.8492 33.9652 41.2854 33.529C41.7219 33.0925 41.7219 32.385 41.2854 31.9485Z" fill="#1C274C"/>
<path opacity="0.2" d="M35.746 21.2065C36.1823 20.77 36.89 20.77 37.3263 21.2065C37.7627 21.6427 37.7627 22.3504 37.3263 22.7867C36.89 23.2231 36.1823 23.2231 35.746 22.7867C35.3096 22.3504 35.3096 21.6427 35.746 21.2065Z" fill="#1C274C"/>
<path opacity="0.5" d="M8.3585 32.8371L11.8783 22.2777C13.4741 17.4901 14.2721 15.0963 16.1601 14.6506C18.0481 14.2049 19.8324 15.9891 23.4009 19.5576L30.4404 26.5971C34.0088 30.1656 35.7931 31.9498 35.3473 33.8379C34.9017 35.7258 32.5079 36.5237 27.7202 38.1198L17.1609 41.6396C11.3997 43.56 8.51902 44.5202 6.99844 42.9996C5.47786 41.479 6.43807 38.5983 8.3585 32.8371Z" fill="#1C274C"/>
<path d="M18.3335 15.6338L18.439 15.1234C17.62 14.6429 16.8979 14.4764 16.16 14.6506C15.859 14.7216 15.5858 14.8421 15.3326 15.014L16.7835 15.3137C15.7866 15.1077 15.4479 15.0377 15.3326 15.014C15.3084 15.0304 15.2841 15.0475 15.2603 15.0649L15.2492 15.1195C15.2342 15.1943 15.2125 15.3036 15.1851 15.4443C15.1304 15.7255 15.053 16.1322 14.9617 16.6388C14.7793 17.6513 14.5403 19.0663 14.3141 20.6786C13.8659 23.8727 13.4508 27.954 13.6646 31.2154C13.794 33.1887 14.2046 35.6369 14.571 37.5496C14.7559 38.515 14.933 39.361 15.0639 39.9662C15.1293 40.269 15.1834 40.5119 15.2212 40.68L15.2652 40.874L15.2771 40.9252L15.2811 40.9427C15.2811 40.9429 15.2815 40.9444 16.8033 40.5902L15.2811 40.9427L15.5665 42.1692C16.0718 42.0025 16.6027 41.8254 17.1607 41.6396L18.5444 41.1783L18.3219 40.2221L18.3113 40.176L18.2698 39.9933C18.2337 39.8331 18.1816 39.599 18.1182 39.3056C17.9913 38.7187 17.8195 37.8977 17.6402 36.9617C17.2782 35.0721 16.899 32.7815 16.7829 31.0108C16.5912 28.0862 16.9658 24.2698 17.4088 21.1129C17.6281 19.5495 17.8601 18.1756 18.0372 17.193C18.1257 16.7021 18.2003 16.3097 18.2525 16.0413C18.2786 15.9071 18.2992 15.8039 18.313 15.7349L18.3287 15.6576L18.3325 15.6389L18.3335 15.6338Z" fill="#1C274C"/>
<path d="M27.1652 38.3048L24.2004 39.2929L24.0079 38.7137L25.4908 38.221C24.0079 38.7137 24.0081 38.714 24.0079 38.7137L24.006 38.7079L24.0019 38.6954L23.9871 38.65C23.9744 38.611 23.9563 38.555 23.9335 38.4833C23.8881 38.3398 23.8238 38.1337 23.7471 37.8773C23.5938 37.3654 23.3896 36.6494 23.185 35.8302C22.7848 34.2277 22.3488 32.0979 22.3488 30.3233C22.3488 28.5487 22.7848 26.419 23.185 24.8165C23.3896 23.9973 23.5938 23.2812 23.7471 22.7694C23.8238 22.5129 23.8881 22.3069 23.9335 22.1633C23.9563 22.0917 23.9744 22.0356 23.9871 21.9967L24.0019 21.9512L24.006 21.9385L24.0073 21.9348C24.0073 21.9348 24.0079 21.9329 25.4908 22.4256L24.0073 21.9348L24.449 20.6059L26.9217 23.0785C26.9188 23.0883 26.9154 23.0983 26.9121 23.1087C26.8713 23.2375 26.8121 23.4271 26.7408 23.6654C26.5979 24.1429 26.4073 24.8115 26.2169 25.5735C25.8273 27.1335 25.4738 28.9527 25.4738 30.3233C25.4738 31.694 25.8273 33.5131 26.2169 35.0731C26.4073 35.8352 26.5979 36.5037 26.7408 36.9812C26.8121 37.2196 26.8713 37.4092 26.9121 37.5379C26.9325 37.6023 26.9483 37.6515 26.959 37.6835L26.9704 37.7192L26.9731 37.7271L27.1652 38.3048Z" fill="#1C274C"/>
</svg>
