<svg width="57" height="57" viewBox="0 0 57 57" fill="none" xmlns="http://www.w3.org/2000/svg">
<path d="M56 29C56 43.9117 43.9117 56 29 56C14.0883 56 2 43.9117 2 29C2 14.0883 14.0883 2 29 2C43.9117 2 56 14.0883 56 29Z" fill="white"/>
<path d="M30.8 21.8C30.8 20.8059 29.9941 20 29 20C28.0059 20 27.2 20.8059 27.2 21.8V27.2H21.8C20.8059 27.2 20 28.0059 20 29C20 29.9941 20.8059 30.8 21.8 30.8H27.2V36.2C27.2 37.1941 28.0059 38 29 38C29.9941 38 30.8 37.1941 30.8 36.2V30.8H36.2C37.1941 30.8 38 29.9941 38 29C38 28.0059 37.1941 27.2 36.2 27.2H30.8V21.8Z" fill="#0077B6"/>
</svg>
